<svg xmlns="http://www.w3.org/2000/svg" fill="#ffffff" data-name="Layer 1" viewBox="0 0 100 125" x="0px" y="0px"><title>music-base</title><path d="M50,2.5a48,48,0,1,0,48,48A48,48,0,0,0,50,2.5Zm-.92,63.31A1.59,1.59,0,0,1,46.44,67L34.92,57H25.59A1.59,1.59,0,0,1,24,55.42V43.58A1.59,1.59,0,0,1,25.59,42h9.33L46.44,32a1.59,1.59,0,0,1,2.64,1.2Zm5.33-9.45a1.59,1.59,0,0,1-.63-3.05,4,4,0,0,0,2.43-3.7s0-.18,0-.23a4,4,0,0,0-2.46-3.71A1.59,1.59,0,1,1,55,42.74a7.54,7.54,0,0,1,4.41,6.88h0A7.15,7.15,0,0,1,55,56.24,1.58,1.58,0,0,1,54.41,56.37Zm3.49,7.49a1.59,1.59,0,0,1-.66-3,12.47,12.47,0,0,0,7.27-11.3h0a12.48,12.48,0,0,0-7.27-11.32,1.59,1.59,0,0,1,1.33-2.9,15.68,15.68,0,0,1,9.13,14.18s0,0,0,0a15.66,15.66,0,0,1-9.13,14.22A1.57,1.57,0,0,1,57.9,63.86ZM76,49.62s0,.09,0,.13A24.13,24.13,0,0,1,62.07,71.21a1.59,1.59,0,1,1-1.34-2.89,20.7,20.7,0,0,0,0-37.64,1.59,1.59,0,1,1,1.34-2.89A24.13,24.13,0,0,1,76,49.25s0,.09,0,.13,0,.08,0,.12S76,49.58,76,49.62Z"/></svg>
