<svg xmlns="http://www.w3.org/2000/svg" fill="#ffffff" data-name="Layer 1" viewBox="0 0 100 125" x="0px" y="0px"><title>music-base</title><path d="M50,2A48,48,0,1,0,98,50,48,48,0,0,0,50,2Zm6.46,34.57a1.59,1.59,0,0,1,2.11-.78A15.68,15.68,0,0,1,67.69,50s0,0,0,0a15.65,15.65,0,0,1-3.77,10.17l-2.26-2.26A12.46,12.46,0,0,0,64.51,50h0a12.48,12.48,0,0,0-7.27-11.32A1.59,1.59,0,0,1,56.46,36.57ZM52.9,44.09A1.59,1.59,0,0,1,55,43.24a7.3,7.3,0,0,1,4.4,6.64s0,0,0,.09A7.63,7.63,0,0,1,58,54.29L55.74,52a4,4,0,0,0,.47-1.87s0-.13,0-.18a4.09,4.09,0,0,0-2.46-3.76A1.59,1.59,0,0,1,52.9,44.09Zm-6.46-11.6a1.59,1.59,0,0,1,2.64,1.2V45.32l-3.19-3.19v-5l-2.65,2.3L41,37.23Zm2.64,33.83a1.59,1.59,0,0,1-.93,1.45,1.58,1.58,0,0,1-.66.14,1.59,1.59,0,0,1-1-.39l-11.51-10H25.59A1.59,1.59,0,0,1,24,55.92V44.08a1.59,1.59,0,0,1,1.59-1.59h9.33l2-1.77L39.22,43l-2.66,2.31a1.6,1.6,0,0,1-1,.39H27.19v8.66h8.33a1.6,1.6,0,0,1,1,.39l9.33,8.1V49.64l3.19,3.18Zm8.83-2a1.59,1.59,0,0,1-.66-3l.22-.11,2.36,2.36c-.41.23-.82.45-1.25.65A1.57,1.57,0,0,1,57.9,64.36Zm4.16,7.35a1.59,1.59,0,1,1-1.34-2.89,20.67,20.67,0,0,0,2.78-1.57l2.28,2.28A23.83,23.83,0,0,1,62.07,71.71Zm9.08-.56a1.59,1.59,0,0,1-2.25,0l-40-40.05a1.59,1.59,0,1,1,2.25-2.25L71.15,68.9A1.59,1.59,0,0,1,71.15,71.15ZM76,50.26A24.13,24.13,0,0,1,69.76,66l-2.25-2.25a20.62,20.62,0,0,0-6.79-32.58,1.59,1.59,0,0,1,1.34-2.89A24.14,24.14,0,0,1,76,49.75S76,50.21,76,50.26Z"/></svg>
